<svg width="38" height="39" viewBox="0 0 38 39" fill="none" xmlns="http://www.w3.org/2000/svg">
<path d="M20.65 34.2892L20.65 34.5731L20.9316 34.5372C24.8274 34.0415 28.3884 32.0809 30.8906 29.054C33.3929 26.0271 34.6487 22.1609 34.4027 18.2413C34.1568 14.3217 32.4276 10.6429 29.5667 7.95243C26.7057 5.262 22.9276 3.7619 19.0003 3.75703L19.0002 3.75703C15.0681 3.7541 11.2828 5.25054 8.41566 7.94143C5.54851 10.6323 3.81523 14.3152 3.569 18.2395C3.32277 22.1639 4.58212 26.0345 7.09044 29.0627C9.59877 32.0909 13.1673 34.0487 17.0689 34.5373L17.35 34.5725V34.2892V23.007V22.757H17.1H13.55V19.457H17.1H17.35V19.207V16.0644C17.35 13.5447 17.6137 12.6694 18.0807 11.7909L18.081 11.7905C18.544 10.9155 19.2598 10.2004 20.1351 9.7381L20.1366 9.73732C20.8177 9.3718 21.6798 9.14223 23.2396 9.04262C23.7965 9.00708 24.5159 9.04486 25.4019 9.16291V12.3051H24.7019C23.8292 12.3051 23.2023 12.3255 22.7366 12.3762C22.2724 12.4267 21.949 12.5092 21.6938 12.6454C21.3927 12.8009 21.1474 13.0463 20.992 13.3475C20.7312 13.8391 20.6519 14.3272 20.6519 16.0625V19.207V19.457H20.9019H25.3317L24.5067 22.757H20.9019H20.6519L20.6519 23.007L20.65 34.2892ZM19 37.957C8.64437 37.957 0.25 29.5627 0.25 19.207C0.25 8.8514 8.64437 0.457031 19 0.457031C29.3556 0.457031 37.75 8.8514 37.75 19.207C37.75 29.5627 29.3556 37.957 19 37.957Z" fill="#02CDCF" stroke="black" stroke-width="0.5"/>
</svg>
